<?xml version="1.0" encoding="UTF-8" standalone="no"?>
<!-- Generated by IcoMoon.io -->

<svg
   xmlns:dc="http://purl.org/dc/elements/1.1/"
   xmlns:cc="http://creativecommons.org/ns#"
   xmlns:rdf="http://www.w3.org/1999/02/22-rdf-syntax-ns#"
   xmlns:svg="http://www.w3.org/2000/svg"
   xmlns="http://www.w3.org/2000/svg"
   xmlns:sodipodi="http://sodipodi.sourceforge.net/DTD/sodipodi-0.dtd"
   xmlns:inkscape="http://www.inkscape.org/namespaces/inkscape"
   version="1.1"
   width="1936"
   height="1864"
   viewBox="0 0 1936 1864"
   id="svg2"
   inkscape:version="0.91 r13725"
   sodipodi:docname="bootstrap.svg">
  <metadata
     id="metadata10">
    <rdf:RDF>
      <cc:Work
         rdf:about="">
        <dc:format>image/svg+xml</dc:format>
        <dc:type
           rdf:resource="http://purl.org/dc/dcmitype/StillImage" />
        <dc:title></dc:title>
      </cc:Work>
    </rdf:RDF>
  </metadata>
  <defs
     id="defs8" />
  <sodipodi:namedview
     pagecolor="#ffffff"
     bordercolor="#666666"
     borderopacity="1"
     objecttolerance="10"
     gridtolerance="10"
     guidetolerance="10"
     inkscape:pageopacity="0"
     inkscape:pageshadow="2"
     inkscape:window-width="929"
     inkscape:window-height="731"
     id="namedview6"
     showgrid="false"
     inkscape:zoom="0.16296602"
     inkscape:cx="703.33539"
     inkscape:cy="1333.3451"
     inkscape:window-x="0"
     inkscape:window-y="0"
     inkscape:window-maximized="0"
     inkscape:current-layer="svg2" />
  <path
     d="M 339.37851,16.380801 C 293.17746,23.131418 237.68688,44.603263 198.30912,71.280402 172.57793,88.11628 139.36579,119.75472 120.21127,144.5612 98.837123,172.45833 72.777099,226.13794 62.501066,262.98168 l -8.714076,30.66244 0,1279.12008 8.714076,30.6625 c 10.193825,36.8437 36.253847,90.5233 57.710204,118.4204 40.28205,52.1343 102.34929,96.054 164.66316,115.9805 51.46237,16.2666 25.73118,15.6159 697.61934,15.6159 672.21703,0 646.48583,0.8133 697.61933,-15.9412 62.6427,-19.9265 124.6278,-63.5209 164.6632,-115.6552 21.3741,-28.2224 47.763,-81.902 57.9568,-118.4204 l 8.3852,-30.6625 0,-1279.12008 -8.714,-30.66244 c -10.1939,-36.7624 -36.2539,-90.52335 -57.628,-118.42048 -19.2368,-24.88782 -52.3667,-56.44492 -78.0979,-73.280798 -27.622,-18.706531 -72.5899,-38.958384 -107.2818,-48.474314 l -30.417,-8.29594 -635.6343,0 c -349.46738,0 -644.01959,0.813327 -653.88459,2.114651 z M 1205.6892,354.72501 c 97.9923,15.94122 164.9098,47.82365 208.6446,99.38861 18.5791,21.79718 40.282,65.0662 49.325,97.27396 5.5901,21.14651 6.4944,33.10243 6.8232,85.88738 0.3289,55.55026 -0.3288,63.76487 -6.8232,85.56204 -18.9079,65.0662 -60.1765,115.0045 -126.8474,153.71889 l -22.9361,13.1759 16.4417,5.2053 c 25.0735,8.29594 66.9997,29.76778 88.3738,45.709 53.3532,39.85304 90.5113,101.82861 105.391,175.76011 7.1522,36.8437 7.1522,115.6552 -0.3288,149.4082 -29.4306,132.8164 -133.3418,225.1291 -289.6197,256.1168 -59.8476,11.956 -75.3028,12.6066 -396.5727,12.6066 l -314.03558,0 0,-1187.45807 324.96928,1.21999 c 290.8528,0.89466 328.011,1.54532 357.1949,6.42529 z m -415.48056,334.92823 0,139.89232 149.78346,-1.21999 c 140.4939,-1.54532 151.0166,-1.87065 173.6239,-7.97061 70.6991,-19.03186 101.3628,-59.21024 101.3628,-132.81637 0,-56.44492 -20.1411,-92.96332 -63.8759,-114.43517 -38.7201,-19.03186 -80.6463,-23.01716 -245.22723,-23.34249 l -115.66703,0 0,139.89231 z m 0,479.78186 0,162.9095 163.67665,-1.22 c 183.89991,-1.22 190.06551,-1.8706 235.36231,-23.5865 52.12,-25.1318 75.3027,-66.2861 75.3027,-133.467 0,-86.4567 -34.6918,-134.3617 -114.6805,-158.2735 -22.6073,-7.076 -26.9643,-7.076 -191.29864,-8.2959 l -168.36252,-0.8947 0,162.9095 z"
     id="path4"
     style="fill:#6920ad;fill-opacity:1"
     inkscape:connector-curvature="0" />
</svg>
