<?xml version="1.0" encoding="UTF-8" standalone="no"?>
<!-- Generated by IcoMoon.io -->

<svg
   xmlns:dc="http://purl.org/dc/elements/1.1/"
   xmlns:cc="http://creativecommons.org/ns#"
   xmlns:rdf="http://www.w3.org/1999/02/22-rdf-syntax-ns#"
   xmlns:svg="http://www.w3.org/2000/svg"
   xmlns="http://www.w3.org/2000/svg"
   xmlns:sodipodi="http://sodipodi.sourceforge.net/DTD/sodipodi-0.dtd"
   xmlns:inkscape="http://www.inkscape.org/namespaces/inkscape"
   version="1.1"
   width="1936"
   height="1864"
   viewBox="0 0 1936 1864"
   id="svg2"
   inkscape:version="0.91 r13725"
   sodipodi:docname="css3.svg">
  <metadata
     id="metadata10">
    <rdf:RDF>
      <cc:Work
         rdf:about="">
        <dc:format>image/svg+xml</dc:format>
        <dc:type
           rdf:resource="http://purl.org/dc/dcmitype/StillImage" />
        <dc:title></dc:title>
      </cc:Work>
    </rdf:RDF>
  </metadata>
  <defs
     id="defs8" />
  <sodipodi:namedview
     pagecolor="#ffffff"
     bordercolor="#666666"
     borderopacity="1"
     objecttolerance="10"
     gridtolerance="10"
     guidetolerance="10"
     inkscape:pageopacity="0"
     inkscape:pageshadow="2"
     inkscape:window-width="811"
     inkscape:window-height="827"
     id="namedview6"
     showgrid="false"
     inkscape:zoom="0.16296602"
     inkscape:cx="940.72826"
     inkscape:cy="366.9841"
     inkscape:window-x="55"
     inkscape:window-y="1"
     inkscape:window-maximized="0"
     inkscape:current-layer="g4686"
     inkscape:snap-page="false"
     showguides="true"
     inkscape:guide-bbox="true" />
  <g
     id="g4686"
     transform="matrix(1.3621302,0,0,1.3139136,-5.6695477,1827.1611)">
    <path
       inkscape:connector-curvature="0"
       style="fill:#0277df;fill-opacity:1"
       id="path4"
       d="m 720.88194,-417.83393 0,0 z M 82.881381,-1388.2732 198.8351,-115.71047 719.12775,25.605896 1240.8913,-115.93116 l 116.067,-1272.34204 -1274.076919,0 z m 1033.171619,291.0488 -39.2171,430.09442 0,0 -27.1635,296.75149 -2.376,26.35907 -327.14957,88.76493 -326.69652,-88.76493 -22.35336,-245.08814 160.09435,0 11.37496,124.482 177.80701,46.90255 0.46973,-0.0578 0.11774,0 177.35485,-46.8468 18.61796,-202.39426 -372.30842,0 -3.16801,-35.05197 -7.30058,-79.13002 -3.78984,-41.8629 400.7173,0 14.59999,-159.81108 -610.38429,0 -3.16788,-35.10726 -7.3006,-79.1299 -3.78989,-41.8637 798.94437,0 -3.8485,41.8637 z" />
  </g>
</svg>
