<?xml version="1.0" encoding="UTF-8" standalone="no"?>
<!-- Generated by IcoMoon.io -->

<svg
   xmlns:dc="http://purl.org/dc/elements/1.1/"
   xmlns:cc="http://creativecommons.org/ns#"
   xmlns:rdf="http://www.w3.org/1999/02/22-rdf-syntax-ns#"
   xmlns:svg="http://www.w3.org/2000/svg"
   xmlns="http://www.w3.org/2000/svg"
   xmlns:sodipodi="http://sodipodi.sourceforge.net/DTD/sodipodi-0.dtd"
   xmlns:inkscape="http://www.inkscape.org/namespaces/inkscape"
   version="1.1"
   width="1936"
   height="1864"
   viewBox="0 0 1936 1864"
   id="svg2"
   inkscape:version="0.91 r13725"
   sodipodi:docname="html5.svg">
  <metadata
     id="metadata10">
    <rdf:RDF>
      <cc:Work
         rdf:about="">
        <dc:format>image/svg+xml</dc:format>
        <dc:type
           rdf:resource="http://purl.org/dc/dcmitype/StillImage" />
        <dc:title></dc:title>
      </cc:Work>
    </rdf:RDF>
  </metadata>
  <defs
     id="defs8" />
  <sodipodi:namedview
     pagecolor="#ffffff"
     bordercolor="#666666"
     borderopacity="1"
     objecttolerance="10"
     gridtolerance="10"
     guidetolerance="10"
     inkscape:pageopacity="0"
     inkscape:pageshadow="2"
     inkscape:window-width="933"
     inkscape:window-height="640"
     id="namedview6"
     showgrid="false"
     inkscape:zoom="0.11523438"
     inkscape:cx="446.31137"
     inkscape:cy="682.6125"
     inkscape:window-x="0"
     inkscape:window-y="0"
     inkscape:window-maximized="0"
     inkscape:current-layer="svg2" />
  <path
     d="M 91.521599,13.038124 252.30859,1676.4205 973.86258,1861.161 1697.443,1676.1334 1858.3858,13.038124 l -1766.942139,0 z m 334.044121,394.744696 -5.29981,-54.76186 553.90842,0 0,203.97535 -312.14342,0 20.18606,208.9276 291.95736,0 0,203.97535 -494.20759,0 -54.40102,-562.18822 z m 1057.39068,412.97472 -51.9849,537.06806 -3.3513,34.4505 -453.75762,115.9831 -453.13404,-115.9831 -31.0195,-320.3174 222.0466,0 15.74356,162.7066 246.51926,61.2931 246.67514,-61.4367 25.6418,-264.55067 -271.61549,0 0,-203.97535 513.38049,0 -5.3778,54.76186 z m 40.0603,-412.97472 -10.054,103.42311 -4.4425,45.86215 -533.56648,0 0,-203.97535 553.36288,0 -5.2999,54.69009 z"
     id="path4"
     inkscape:connector-curvature="0"
     style="fill:#ee3f0e;fill-opacity:1" />
</svg>
