<?xml version="1.0" encoding="UTF-8" standalone="no"?>
<!-- Generated by IcoMoon.io -->

<svg
   xmlns:dc="http://purl.org/dc/elements/1.1/"
   xmlns:cc="http://creativecommons.org/ns#"
   xmlns:rdf="http://www.w3.org/1999/02/22-rdf-syntax-ns#"
   xmlns:svg="http://www.w3.org/2000/svg"
   xmlns="http://www.w3.org/2000/svg"
   xmlns:sodipodi="http://sodipodi.sourceforge.net/DTD/sodipodi-0.dtd"
   xmlns:inkscape="http://www.inkscape.org/namespaces/inkscape"
   version="1.1"
   width="1936"
   height="1864"
   viewBox="0 0 1936 1864"
   id="svg2"
   inkscape:version="0.91 r13725"
   sodipodi:docname="javascript_1.svg">
  <metadata
     id="metadata10">
    <rdf:RDF>
      <cc:Work
         rdf:about="">
        <dc:format>image/svg+xml</dc:format>
        <dc:type
           rdf:resource="http://purl.org/dc/dcmitype/StillImage" />
        <dc:title></dc:title>
      </cc:Work>
    </rdf:RDF>
  </metadata>
  <defs
     id="defs8" />
  <sodipodi:namedview
     pagecolor="#ffffff"
     bordercolor="#666666"
     borderopacity="1"
     objecttolerance="10"
     gridtolerance="10"
     guidetolerance="10"
     inkscape:pageopacity="0"
     inkscape:pageshadow="2"
     inkscape:window-width="967"
     inkscape:window-height="612"
     id="namedview6"
     showgrid="false"
     inkscape:zoom="0.11523438"
     inkscape:cx="322.77893"
     inkscape:cy="862.99962"
     inkscape:window-x="66"
     inkscape:window-y="280"
     inkscape:window-maximized="0"
     inkscape:current-layer="svg2" />
  <path
     d="m 444.19262,130.15707 302.46393,0 0,1014.49553 c 0,457.1694 -183.12332,616.7638 -475.66907,616.7638 -71.60437,0 -163.20635,-14.2805 -222.87665,-38.1135 l 33.866929,-292.9436 c 41.769211,16.6928 95.553121,28.5611 155.223421,28.5611 127.40416,0 206.99144,-69.0868 206.99144,-316.6801 l 0,-1012.08323 z M 1009.2865,1363.7813 c 79.5873,49.9818 206.9914,100.0601 336.3308,100.0601 139.3383,0 212.9585,-69.0869 212.9585,-176.1907 0,-97.6479 -63.7021,-157.1822 -224.8925,-223.8567 -222.8767,-95.23563 -370.11713,-242.86529 -370.11713,-478.68676 0,-273.83851 193.04143,-481.00246 507.43943,-481.00246 153.2076,0 262.7106,35.70129 342.2979,80.95508 l -67.6532,290.53128 c -51.768,-30.97328 -149.2564,-76.22707 -278.5958,-76.22707 -131.3553,0 -195.0574,73.81482 -195.0574,154.76989 0,102.37585 73.6202,147.62965 248.7606,228.58473 236.8266,104.78809 346.2491,252.41781 346.2491,481.00251 0,269.1105 -171.1086,497.6952 -539.2905,497.6952 -153.2076,0 -304.4798,-49.9818 -380.11597,-100.0601 l 61.68617,-297.6715 z"
     id="path4"
     inkscape:connector-curvature="0"
     style="fill:#f4e02c;fill-opacity:1" />
</svg>
