<?xml version="1.0" encoding="UTF-8" standalone="no"?>
<!-- Generated by IcoMoon.io -->

<svg
   xmlns:dc="http://purl.org/dc/elements/1.1/"
   xmlns:cc="http://creativecommons.org/ns#"
   xmlns:rdf="http://www.w3.org/1999/02/22-rdf-syntax-ns#"
   xmlns:svg="http://www.w3.org/2000/svg"
   xmlns="http://www.w3.org/2000/svg"
   xmlns:sodipodi="http://sodipodi.sourceforge.net/DTD/sodipodi-0.dtd"
   xmlns:inkscape="http://www.inkscape.org/namespaces/inkscape"
   version="1.1"
   width="1936"
   height="1864"
   viewBox="0 0 1936 1864"
   id="svg2"
   inkscape:version="0.91 r13725"
   sodipodi:docname="jquery_logo.svg">
  <metadata
     id="metadata10">
    <rdf:RDF>
      <cc:Work
         rdf:about="">
        <dc:format>image/svg+xml</dc:format>
        <dc:type
           rdf:resource="http://purl.org/dc/dcmitype/StillImage" />
        <dc:title></dc:title>
      </cc:Work>
    </rdf:RDF>
  </metadata>
  <defs
     id="defs8" />
  <sodipodi:namedview
     pagecolor="#ffffff"
     bordercolor="#666666"
     borderopacity="1"
     objecttolerance="10"
     gridtolerance="10"
     guidetolerance="10"
     inkscape:pageopacity="0"
     inkscape:pageshadow="2"
     inkscape:window-width="851"
     inkscape:window-height="730"
     id="namedview6"
     showgrid="false"
     inkscape:zoom="0.040741504"
     inkscape:cx="-1692.6917"
     inkscape:cy="-745.99076"
     inkscape:window-x="0"
     inkscape:window-y="0"
     inkscape:window-maximized="0"
     inkscape:current-layer="svg2" />
  <path
     d="m 1004.6612,1541.7448 c -12.41358,-2.6885 -24.41336,-6.4049 -36.49589,-9.8051 -3.06202,-0.8698 -6.12403,-1.7395 -9.10328,-2.6094 -11.83426,-3.4792 -23.50302,-7.1165 -35.17176,-10.9911 -1.57239,-0.7907 -3.22752,-1.107 -4.79991,-1.6605 -10.4274,-3.5583 -20.77203,-7.1957 -31.03391,-10.9911 -2.8965,-1.1071 -5.793,-2.1351 -8.6895,-3.2421 -11.25496,-4.2699 -22.42717,-8.6979 -33.51661,-13.2842 -2.23445,-0.9489 -4.46889,-1.8977 -6.70333,-2.8466 -9.51707,-4.1119 -18.86861,-8.3027 -28.22016,-12.5726 -2.73099,-1.2652 -5.37922,-2.4513 -8.19295,-3.7165 -7.36539,-3.4001 -14.64801,-7.1165 -21.84787,-10.5957 -4.88267,-2.4513 -9.76534,-4.7445 -14.56525,-7.2747 -8.85501,-4.5863 -17.54451,-9.2516 -26.234,-14.075 -2.8965,-1.5814 -5.87576,-3.0048 -8.85501,-4.6653 -11.50324,-6.4049 -22.92372,-13.1262 -34.09592,-19.9264 -3.06202,-1.8977 -6.12403,-3.9536 -9.18604,-5.8514 -8.19295,-4.9816 -16.30315,-10.1213 -24.24783,-15.4193 -2.64822,-1.6605 -5.2137,-3.5582 -7.77916,-5.2188 -7.69641,-5.2188 -15.39281,-10.4376 -22.92372,-15.8146 -3.47579,-2.4512 -6.78607,-4.9024 -10.17911,-7.3537 -6.9516,-5.0607 -13.90319,-10.2004 -20.68928,-15.4983 -3.06201,-2.3722 -6.20678,-4.7444 -9.2688,-7.1166 -8.68949,-6.8793 -17.29623,-13.6796 -25.82021,-20.7962 -0.91032,-0.7907 -1.9034,-1.4233 -2.81373,-2.214 -9.18604,-7.6701 -18.20656,-15.5774 -27.14433,-23.5638 -2.56547,-2.3721 -5.13094,-4.6653 -7.61365,-6.9584 -6.62057,-6.0095 -13.07562,-12.0981 -19.44792,-18.2658 -2.56546,-2.4513 -5.13093,-4.8234 -7.61365,-7.2747 -8.11019,-7.9863 -16.05487,-16.0518 -23.91679,-24.1964 -0.41379,0 -0.82757,-0.7907 -1.1586,-1.186 -8.27571,-8.6189 -16.30315,-17.4751 -24.24784,-26.4104 -2.15167,-2.4512 -4.22061,-4.7444 -6.37229,-7.1957 -5.87575,-6.8002 -11.7515,-13.6795 -17.46174,-20.638 -2.15169,-2.4512 -4.30337,-5.0606 -6.3723,-7.591 -6.86883,-8.5399 -13.57216,-17.0006 -20.10997,-25.6196 C 220.95157,912.40326 155.65622,585.59481 300.97767,317.22125 L 172.20765,473.31123 C 7.1900129,699.93427 27.71377,994.79722 153.75282,1235.5744 c 2.97925,5.7723 6.12402,11.4655 9.26879,17.1588 1.98617,3.5583 3.80683,7.2747 5.87575,10.833 1.1586,2.135 2.48272,4.1909 3.64131,6.2468 2.15169,3.8746 4.38612,7.5119 6.53781,11.2283 3.88959,6.5631 7.94468,13.1261 11.99978,19.6892 2.23444,3.5582 4.55164,7.1956 6.86884,10.7539 4.55164,7.0375 9.18604,13.9168 13.98594,20.8752 1.98618,2.9257 3.88959,5.9305 5.95852,8.7772 6.62057,9.3306 13.32389,18.6612 20.19272,27.9127 0.16552,0 0.41379,0.7907 0.5793,0.7907 1.07585,1.4234 2.31721,2.9258 3.39305,4.4281 5.9585,7.9073 12.16529,15.7355 18.45482,23.4056 2.31721,2.8466 4.6344,5.6932 6.9516,8.4608 5.54472,6.7212 11.25496,13.3633 17.04796,20.0055 2.15168,2.4512 4.30337,4.9816 6.53781,7.4328 7.77917,8.6981 15.64109,17.396 23.75129,25.9359 0.16551,0 0.33103,0 0.49654,0 0.33103,0.7908 0.66206,0.7908 0.91033,1.028 7.86192,8.2236 15.97211,16.2891 24.08231,24.2754 2.56547,2.5303 5.13094,4.9815 7.6964,7.4328 6.28955,6.0886 12.74459,12.0982 19.28241,18.0286 2.64822,2.3722 5.2137,4.8235 7.86192,7.1957 8.68949,7.8282 17.46175,15.4983 26.39951,23.0102 0.16552,0.079 0.24827,0 0.41379,0 1.48963,1.2652 3.14476,2.5304 4.6344,3.7165 7.86192,6.484 15.88935,12.9679 23.99956,19.3728 3.31028,2.5304 6.62056,5.0607 9.93084,7.591 6.62057,5.0607 13.24113,10.0423 19.94446,14.9448 3.55856,2.6094 7.11711,5.2189 10.67566,7.7491 7.36539,5.2189 14.89628,10.3586 22.42717,15.3402 2.73099,1.8978 5.37922,3.7165 8.19295,5.5351 0.74482,0.7908 1.48963,1.028 2.23445,1.5024 7.11711,4.7444 14.48248,9.1725 21.76511,13.7587 3.14477,1.9768 6.20678,4.0327 9.43431,6.0096 11.25496,6.8002 22.59268,13.5214 34.09592,20.0054 3.14477,1.7396 6.28953,3.4001 9.43431,5.0607 8.44122,4.6653 16.9652,9.2515 25.57194,13.7587 4.6344,2.3722 9.43431,4.6653 14.15146,6.9584 6.04126,3.0047 12.16529,6.1676 18.28931,9.0933 1.40687,0.7908 2.89651,1.3443 4.22061,1.9769 2.48272,1.107 4.96543,2.2141 7.5309,3.4791 9.59983,4.3491 19.2824,8.6981 29.04774,12.889 2.06893,0.8698 4.05509,1.7396 6.12403,2.6094 11.1722,4.6653 22.42717,9.1724 33.84764,13.4424 2.73098,1.107 5.46197,2.0559 8.27571,3.0839 10.51015,3.8745 21.18581,7.749 31.94424,11.3074 1.32411,0.7907 2.64822,0.9489 4.05509,1.3442 11.75151,3.9536 23.66853,7.591 35.58555,11.1493 2.81374,0.7907 5.71024,1.6605 8.60674,2.4512 12.16529,3.4793 24.24782,7.6701 36.8269,9.8841 798.02658,139.0893 1029.82918,-458.2276 1029.82918,-458.2276 -194.6447,242.3586 -540.2382,306.2495 -867.708,235.1629 z M 717.16306,923.71069 c 17.87553,24.51261 37.73723,53.61145 61.40576,73.30062 8.60674,9.01429 17.62726,17.87049 26.8133,26.56849 2.31719,2.2931 4.71715,4.4281 7.03435,6.6422 8.93776,8.3026 17.95829,16.3681 27.30984,24.2753 0.41379,0 0.74481,0.7908 1.1586,0.949 0.0827,0.079 0.16552,0 0.24827,0 10.34463,8.6979 21.10306,17.0796 31.94423,25.2242 2.39996,1.7396 4.79991,3.6374 7.28263,5.4561 10.92393,7.9863 22.01339,15.8145 33.43386,23.3264 0.33103,0 0.66206,0.7907 0.99309,0.7907 5.04818,3.3211 10.17912,6.405 15.2273,9.6469 2.48272,1.5024 4.79991,3.163 7.28263,4.5863 8.11019,4.9816 16.3859,9.8841 24.74436,14.4704 1.15861,0.7907 2.31721,1.2652 3.4758,1.8977 7.19987,4.0327 14.56525,7.9073 21.93063,11.7028 2.56547,1.4233 5.2137,2.6094 7.77917,3.8746 5.04822,2.5303 10.17912,5.0606 15.31002,7.591 0.7448,0 1.5724,0.7907 2.3172,0.9489 10.5102,4.9816 21.1031,9.7259 31.9443,14.233 2.3172,0.9489 4.7171,1.8187 7.0343,2.7676 8.6895,3.5583 17.379,6.9585 26.1513,10.2004 3.724,1.3442 7.5309,2.6094 11.1722,3.9536 8.0274,2.8467 15.9721,5.4561 24.0822,7.9864 3.6414,1.107 7.2,2.2141 10.8412,3.3211 11.5033,3.4001 22.841,7.7492 34.7581,9.6469 616.1264,97.497 758.3859,-355.74915 758.3859,-355.74915 -128.1908,176.49085 -376.5447,260.62435 -641.533,194.91485 -11.7515,-3.0048 -23.3375,-6.1677 -34.9234,-9.6469 -3.5586,-1.028 -6.9516,-2.1351 -10.5102,-3.2421 -8.1929,-2.5303 -16.3032,-5.2188 -24.4133,-8.0654 -3.7241,-1.3442 -7.3655,-2.6094 -11.0067,-3.9536 -8.855,-3.2421 -17.6273,-6.6422 -26.234,-10.1214 -2.4,-1.0279 -4.8,-1.8977 -7.1171,-2.8466 -10.8412,-4.5071 -21.5997,-9.2515 -32.1925,-14.2332 -5.462,-2.5302 -10.7585,-5.21877 -16.1377,-7.82817 -3.062,-1.50241 -6.2068,-3.00472 -9.2688,-4.58618 -6.8688,-3.55831 -13.6549,-7.27471 -20.3582,-10.99117 -1.5724,-0.8698 -3.3103,-1.7396 -4.8826,-2.60941 -8.3585,-4.6653 -16.5515,-9.48874 -24.7445,-14.39127 -2.4827,-1.50239 -4.9654,-3.16291 -7.4481,-4.74437 -5.3792,-3.32107 -10.7584,-6.72121 -15.9721,-10.12134 -11.3377,-7.51193 -22.4272,-15.34015 -33.26835,-23.24745 -2.48271,-1.89775 -5.04819,-3.71643 -7.5309,-5.61418 C 873.73947,832.46052 781.79635,712.90224 738.01785,577.29214 692.17043,436.70047 702.10128,278.7918 781.46532,150.69364 l -97.48784,131.4983 C 564.64175,446.26828 571.0968,665.93291 664.19853,839.49802 c 15.64109,29.09883 33.18559,57.32788 52.79902,84.21267 z M 1366.6407,720.73046 c 5.0482,1.81868 10.1791,3.40013 15.3101,5.06066 2.2344,0.79074 4.4688,1.42332 6.786,2.0559 7.2826,2.13497 14.4826,4.74438 21.9306,6.00954 340.2145,62.78392 432.4886,-166.8439 457.0675,-200.60804 -80.8537,111.17655 -216.6581,137.90321 -383.3309,99.23654 -13.1584,-3.08384 -27.6408,-7.59101 -40.3855,-11.94002 -16.3031,-5.53511 -32.2752,-11.86094 -47.9163,-18.9775 -29.627,-13.60054 -57.8472,-30.04771 -83.9985,-48.94615 -149.1283,-108.0927 -241.8161,-314.394 -144.4938,-482.424002 l -52.7163,69.346972 c -70.3435,98.92025 -77.2124,221.79959 -28.4684,330.99932 51.4749,116 156.9902,206.93388 280.05,250.10771 z"
     id="path4"
     style="fill:#104deb;fill-opacity:1"
     inkscape:connector-curvature="0" />
</svg>
