<?xml version="1.0" encoding="UTF-8" standalone="no"?>
<!-- Generated by IcoMoon.io -->

<svg
   xmlns:dc="http://purl.org/dc/elements/1.1/"
   xmlns:cc="http://creativecommons.org/ns#"
   xmlns:rdf="http://www.w3.org/1999/02/22-rdf-syntax-ns#"
   xmlns:svg="http://www.w3.org/2000/svg"
   xmlns="http://www.w3.org/2000/svg"
   xmlns:sodipodi="http://sodipodi.sourceforge.net/DTD/sodipodi-0.dtd"
   xmlns:inkscape="http://www.inkscape.org/namespaces/inkscape"
   version="1.1"
   width="1936"
   height="1864"
   viewBox="0 0 1936 1864"
   id="svg2"
   inkscape:version="0.91 r13725"
   sodipodi:docname="mysql.svg">
  <metadata
     id="metadata10">
    <rdf:RDF>
      <cc:Work
         rdf:about="">
        <dc:format>image/svg+xml</dc:format>
        <dc:type
           rdf:resource="http://purl.org/dc/dcmitype/StillImage" />
        <dc:title></dc:title>
      </cc:Work>
    </rdf:RDF>
  </metadata>
  <defs
     id="defs8" />
  <sodipodi:namedview
     pagecolor="#ffffff"
     bordercolor="#666666"
     borderopacity="1"
     objecttolerance="10"
     gridtolerance="10"
     guidetolerance="10"
     inkscape:pageopacity="0"
     inkscape:pageshadow="2"
     inkscape:window-width="1115"
     inkscape:window-height="761"
     id="namedview6"
     showgrid="false"
     inkscape:zoom="0.081483008"
     inkscape:cx="-1168.6641"
     inkscape:cy="-127.7389"
     inkscape:window-x="0"
     inkscape:window-y="0"
     inkscape:window-maximized="0"
     inkscape:current-layer="svg2" />
  <path
     d="m 93.258965,41.549728 c -46.409358,46.44199 -34.807019,99.883222 46.409355,220.599462 41.80134,62.66376 90.51471,160.24135 109.11137,215.98821 18.59666,58.05249 55.70769,137.02034 81.21638,176.4631 46.40936,65.05172 46.40936,78.96785 16.21036,197.37846 -18.59666,74.27425 -25.50869,167.24054 -16.21036,225.29304 13.90635,97.5776 92.81872,239.2092 141.53209,255.431 41.80133,13.9161 102.11704,-60.3581 104.42105,-127.7155 0,-58.0525 2.30401,-60.3581 27.8127,-18.6097 44.10535,71.9686 183.33343,225.2107 194.93577,213.6002 4.60802,-4.6113 -25.50869,-65.0517 -69.61404,-132.3267 -41.80134,-69.663 -90.51471,-160.2414 -109.02908,-202.0721 -25.50869,-69.66299 -34.80702,-74.27429 -65.00602,-41.8307 -18.59665,18.6097 -41.80133,71.9686 -48.71337,120.7162 -18.59665,111.4937 -60.3157,125.4098 -92.81871,30.2202 -32.50301,-95.1896 -32.50301,-257.8189 0,-369.23027 C 436.72114,728.7924 434.41713,707.95938 394.9198,649.82455 369.41111,614.99305 329.91378,531.41394 309.01311,464.05658 288.11245,399.00485 239.39908,301.50961 199.98404,250.37401 109.46933,122.65853 109.46933,76.216538 204.59206,94.743928 c 39.41504,6.999232 99.81303,34.831492 136.92406,60.358122 34.80702,25.52662 95.12273,46.44199 132.23376,46.44199 111.41537,0 306.35114,109.18809 447.88322,250.8197 109.1114,109.10574 164.7368,197.37846 283.1465,436.58766 139.228,283.2632 150.8304,299.5673 236.7371,327.3996 102.117,34.8315 315.5672,164.8526 315.5672,192.7672 0,9.3048 -53.4037,23.221 -118.3275,27.8322 -174.035,18.6098 -190.3277,51.0533 -76.6083,153.2421 53.4037,46.442 153.2167,118.4107 225.1348,157.9357 l 129.9297,74.2743 -60.3157,-76.6622 c -34.807,-41.8308 -106.7251,-106.8001 -162.4328,-141.6316 -55.7077,-34.8315 -99.813,-71.9687 -99.813,-81.2735 0,-9.3049 39.415,-25.5266 88.2107,-32.5259 129.9297,-23.221 167.0408,-34.8315 167.0408,-58.0525 0,-34.8315 -234.3508,-211.2946 -345.7662,-260.1245 -95.1227,-44.1364 -106.7251,-62.7461 -229.7428,-315.78911 C 1165.2822,624.13323 1121.2592,559.08151 982.0311,419.75553 803.38798,240.9868 680.37027,164.32457 522.54554,141.10358 469.14186,131.79871 394.9198,103.96645 362.41679,80.745448 285.80843,22.692961 130.36999,1.7775961 93.176679,41.302696 Z"
     id="path4"
     style="fill:#1b6591;fill-opacity:1"
     inkscape:connector-curvature="0" />
</svg>
