<?xml version="1.0" encoding="UTF-8" standalone="no"?>
<!-- Generated by IcoMoon.io -->

<svg
   xmlns:dc="http://purl.org/dc/elements/1.1/"
   xmlns:cc="http://creativecommons.org/ns#"
   xmlns:rdf="http://www.w3.org/1999/02/22-rdf-syntax-ns#"
   xmlns:svg="http://www.w3.org/2000/svg"
   xmlns="http://www.w3.org/2000/svg"
   xmlns:sodipodi="http://sodipodi.sourceforge.net/DTD/sodipodi-0.dtd"
   xmlns:inkscape="http://www.inkscape.org/namespaces/inkscape"
   version="1.1"
   width="1936"
   height="1864"
   viewBox="0 0 1936 1864"
   id="svg2"
   inkscape:version="0.91 r13725"
   sodipodi:docname="php.svg">
  <metadata
     id="metadata10">
    <rdf:RDF>
      <cc:Work
         rdf:about="">
        <dc:format>image/svg+xml</dc:format>
        <dc:type
           rdf:resource="http://purl.org/dc/dcmitype/StillImage" />
        <dc:title></dc:title>
      </cc:Work>
    </rdf:RDF>
  </metadata>
  <defs
     id="defs8" />
  <sodipodi:namedview
     pagecolor="#ffffff"
     bordercolor="#666666"
     borderopacity="1"
     objecttolerance="10"
     gridtolerance="10"
     guidetolerance="10"
     inkscape:pageopacity="0"
     inkscape:pageshadow="2"
     inkscape:window-width="814"
     inkscape:window-height="776"
     id="namedview6"
     showgrid="false"
     inkscape:zoom="0.11523438"
     inkscape:cx="996.33009"
     inkscape:cy="1191.0543"
     inkscape:window-x="0"
     inkscape:window-y="0"
     inkscape:window-maximized="0"
     inkscape:current-layer="svg2" />
  <path
     d="m 484.01465,515.67214 -340.7086,0 -147.2940127,1138.48756 174.9491927,0 36.84498,-295.11 165.75941,0 c 156.48377,14.0279 331.51884,-182.756 331.51884,-520.08063 0,-196.78373 -73.68993,-309.26903 -220.98392,-323.29693 z m -128.91446,632.56586 -110.5349,0 46.03473,-421.62314 119.72469,0 c 64.41427,0 110.53492,42.21478 110.53492,126.5132 -9.18979,238.99854 -82.87972,281.08214 -165.75944,295.10994 z m 745.83151,-632.56586 -165.75941,0 36.84499,-295.11005 -174.94921,0 -147.294,1138.48761 174.9492,0 82.8797,-632.43484 138.10423,0 c 64.5002,0 64.5002,42.21478 55.2245,112.48531 l -64.4143,520.08063 184.139,0 64.4143,-576.32329 c 18.3796,-140.54107 -36.8449,-253.02637 -184.139,-267.05427 z m 616.917,0 -340.7085,0 -147.2941,1138.48756 174.9491,0 36.8451,-295.11 165.7595,0 c 156.5696,14.0279 331.5189,-182.756 331.5189,-520.08063 0,-196.78373 -73.6901,-309.26903 -220.984,-323.29693 z m -128.9143,632.56586 -110.5349,0 46.0347,-421.62314 119.7247,0 c 64.5001,0 110.5348,42.21478 110.5348,126.5132 -9.1897,238.99854 -82.8796,281.08214 -165.7593,295.10994 z"
     id="path4"
     inkscape:connector-curvature="0"
     style="fill:#4e5acf;fill-opacity:1" />
</svg>
