<?xml version="1.0" encoding="UTF-8" standalone="no"?>
<!-- Generated by IcoMoon.io -->

<svg
   xmlns:dc="http://purl.org/dc/elements/1.1/"
   xmlns:cc="http://creativecommons.org/ns#"
   xmlns:rdf="http://www.w3.org/1999/02/22-rdf-syntax-ns#"
   xmlns:svg="http://www.w3.org/2000/svg"
   xmlns="http://www.w3.org/2000/svg"
   xmlns:sodipodi="http://sodipodi.sourceforge.net/DTD/sodipodi-0.dtd"
   xmlns:inkscape="http://www.inkscape.org/namespaces/inkscape"
   version="1.1"
   width="1963"
   height="1864"
   viewBox="0 0 1963 1864"
   id="svg2"
   inkscape:version="0.91 r13725"
   sodipodi:docname="wordpress.svg">
  <metadata
     id="metadata10">
    <rdf:RDF>
      <cc:Work
         rdf:about="">
        <dc:format>image/svg+xml</dc:format>
        <dc:type
           rdf:resource="http://purl.org/dc/dcmitype/StillImage" />
        <dc:title></dc:title>
      </cc:Work>
    </rdf:RDF>
  </metadata>
  <defs
     id="defs8" />
  <sodipodi:namedview
     pagecolor="#ffffff"
     bordercolor="#666666"
     borderopacity="1"
     objecttolerance="10"
     gridtolerance="10"
     guidetolerance="10"
     inkscape:pageopacity="0"
     inkscape:pageshadow="2"
     inkscape:window-width="1115"
     inkscape:window-height="728"
     id="namedview6"
     showgrid="false"
     inkscape:zoom="0.16296602"
     inkscape:cx="-79.30039"
     inkscape:cy="865.80963"
     inkscape:window-x="0"
     inkscape:window-y="0"
     inkscape:window-maximized="0"
     inkscape:current-layer="svg2" />
  <path
     d="m 10.817249,937.07738 c 0,365.03252 222.089101,680.77372 544.203731,830.03472 L 94.527757,561.51745 C 40.884697,676.33988 10.817249,803.24029 10.817249,937.07738 Z M 1628.2238,890.47922 c 0,-114.00635 -42.9657,-193.00288 -79.6104,-254.45369 -48.945,-76.05863 -94.7296,-140.28411 -94.7296,-216.42436 0,-84.7907 67.0539,-163.70561 162.1251,-163.70561 4.1001,0 8.2856,0.81607 12.3858,0.81607 -171.692,-150.3219 -400.5292,-242.212482 -651.91694,-242.212482 -337.40461,0 -634.14981,165.419382 -806.69597,415.874272 22.72143,0.81608 43.99073,1.14251 62.09954,1.14251 101.05054,0 257.3671,-11.83316 257.3671,-11.83316 51.93468,-2.77466 58.08484,70.10127 6.06474,76.05865 0,0 -52.19094,5.79416 -110.44662,8.81365 L 736.5361,1503.6816 947.86243,898.31359 797.35435,504.55507 c -52.0201,-3.01949 -101.22138,-8.81365 -101.22138,-8.81365 -52.10552,-3.01951 -45.86994,-78.83331 6.23558,-76.05865 0,0 159.30623,11.83316 254.2066,11.83316 100.96505,0 257.45245,-11.83316 257.45245,-11.83316 51.8493,-2.77466 57.9994,70.10127 5.9794,76.05865 0,0 -52.191,5.79416 -110.3613,8.81365 l 348.9362,991.53693 96.3525,-307.3356 c 48.945,-119.9638 73.5456,-219.19904 73.5456,-298.27718 z m -634.83318,127.30848 -289.8262,804.3282 c 86.4439,24.2376 177.84211,37.4581 272.82791,37.4581 112.32577,0 220.29527,-18.6067 320.66237,-52.3924 -2.5625,-3.9171 -4.9542,-8.0792 -6.9188,-12.5676 L 993.39062,1017.7877 Z M 1823.6622,494.43569 c 4.2709,29.46048 6.6627,60.96116 6.6627,94.99169 0,93.52274 -18.365,198.71543 -73.5457,330.43072 l -294.9514,814.5292 c 287.0075,-159.7883 479.9687,-456.8415 479.9687,-797.22832 0,-160.52289 -42.8802,-311.25284 -118.2197,-442.72329 z"
     id="path4"
     inkscape:connector-curvature="0"
     style="fill:#0ba2ec;fill-opacity:1" />
</svg>
